<mxfile host="Electron" agent="Mozilla/5.0 (Macintosh; Intel Mac OS X 10_15_7) AppleWebKit/537.36 (KHTML, like Gecko) draw.io/24.7.8 Chrome/128.0.6613.36 Electron/32.0.1 Safari/537.36" version="24.7.8">
  <diagram name="Page-1" id="_bzG7cBdpyKcyFxJSbEF">
    <mxGraphModel dx="1975" dy="1184" grid="1" gridSize="10" guides="1" tooltips="1" connect="1" arrows="1" fold="1" page="1" pageScale="1" pageWidth="827" pageHeight="1169" math="0" shadow="0">
      <root>
        <mxCell id="0" />
        <mxCell id="1" parent="0" />
        <mxCell id="27hMLqfbAqvRStWL1UFX-8" style="edgeStyle=orthogonalEdgeStyle;rounded=0;orthogonalLoop=1;jettySize=auto;html=1;entryX=1;entryY=0.5;entryDx=0;entryDy=0;" edge="1" parent="1">
          <mxGeometry relative="1" as="geometry">
            <mxPoint x="340" y="290" as="sourcePoint" />
            <mxPoint x="120" y="290" as="targetPoint" />
          </mxGeometry>
        </mxCell>
        <mxCell id="27hMLqfbAqvRStWL1UFX-10" value="Доступ к системе,&lt;div&gt;доступ к API&lt;/div&gt;" style="edgeLabel;html=1;align=center;verticalAlign=middle;resizable=0;points=[];" vertex="1" connectable="0" parent="27hMLqfbAqvRStWL1UFX-8">
          <mxGeometry x="0.1983" y="1" relative="1" as="geometry">
            <mxPoint x="22" y="19" as="offset" />
          </mxGeometry>
        </mxCell>
        <mxCell id="27hMLqfbAqvRStWL1UFX-12" style="edgeStyle=orthogonalEdgeStyle;rounded=0;orthogonalLoop=1;jettySize=auto;html=1;exitX=0.75;exitY=0;exitDx=0;exitDy=0;" edge="1" parent="1" source="27hMLqfbAqvRStWL1UFX-1">
          <mxGeometry relative="1" as="geometry">
            <mxPoint x="430" y="230" as="sourcePoint" />
            <mxPoint x="430" y="60" as="targetPoint" />
            <Array as="points" />
          </mxGeometry>
        </mxCell>
        <mxCell id="27hMLqfbAqvRStWL1UFX-14" value="Отчетность" style="edgeLabel;html=1;align=center;verticalAlign=middle;resizable=0;points=[];rotation=270;" vertex="1" connectable="0" parent="27hMLqfbAqvRStWL1UFX-12">
          <mxGeometry x="0.3926" y="-2" relative="1" as="geometry">
            <mxPoint x="8" y="25" as="offset" />
          </mxGeometry>
        </mxCell>
        <mxCell id="27hMLqfbAqvRStWL1UFX-15" style="edgeStyle=orthogonalEdgeStyle;rounded=0;orthogonalLoop=1;jettySize=auto;html=1;" edge="1" parent="1">
          <mxGeometry relative="1" as="geometry">
            <mxPoint x="370" y="300" as="sourcePoint" />
            <mxPoint x="370" y="460" as="targetPoint" />
          </mxGeometry>
        </mxCell>
        <mxCell id="27hMLqfbAqvRStWL1UFX-27" value="Взаимодействие с университетами&lt;div&gt;&amp;nbsp;и научными центрами&amp;nbsp;&lt;/div&gt;&lt;div&gt;для совместных исследований&amp;nbsp;&lt;/div&gt;" style="edgeLabel;html=1;align=center;verticalAlign=middle;resizable=0;points=[];" vertex="1" connectable="0" parent="27hMLqfbAqvRStWL1UFX-15">
          <mxGeometry x="-0.1798" relative="1" as="geometry">
            <mxPoint x="40" y="4" as="offset" />
          </mxGeometry>
        </mxCell>
        <mxCell id="27hMLqfbAqvRStWL1UFX-17" style="edgeStyle=orthogonalEdgeStyle;rounded=0;orthogonalLoop=1;jettySize=auto;html=1;exitX=0.993;exitY=0.157;exitDx=0;exitDy=0;exitPerimeter=0;" edge="1" parent="1" source="27hMLqfbAqvRStWL1UFX-1">
          <mxGeometry relative="1" as="geometry">
            <mxPoint x="460" y="250" as="sourcePoint" />
            <mxPoint x="707" y="250" as="targetPoint" />
          </mxGeometry>
        </mxCell>
        <mxCell id="27hMLqfbAqvRStWL1UFX-22" value="Сотрудничество с компаниями для интеграции ИИ продуктов&lt;div style=&quot;font-size: 10px;&quot;&gt;Обмен опытом&lt;/div&gt;" style="edgeLabel;html=1;align=center;verticalAlign=middle;resizable=0;points=[];fontSize=10;" vertex="1" connectable="0" parent="27hMLqfbAqvRStWL1UFX-17">
          <mxGeometry x="-0.1163" y="-1" relative="1" as="geometry">
            <mxPoint x="41" y="-21" as="offset" />
          </mxGeometry>
        </mxCell>
        <mxCell id="27hMLqfbAqvRStWL1UFX-1" value="OpenAI" style="rounded=1;whiteSpace=wrap;html=1;fontStyle=1" vertex="1" parent="1">
          <mxGeometry x="340" y="240" width="120" height="60" as="geometry" />
        </mxCell>
        <mxCell id="27hMLqfbAqvRStWL1UFX-18" style="edgeStyle=orthogonalEdgeStyle;rounded=0;orthogonalLoop=1;jettySize=auto;html=1;entryX=1;entryY=0.5;entryDx=0;entryDy=0;" edge="1" parent="1">
          <mxGeometry relative="1" as="geometry">
            <mxPoint x="707" y="290" as="sourcePoint" />
            <mxPoint x="460" y="290" as="targetPoint" />
          </mxGeometry>
        </mxCell>
        <mxCell id="27hMLqfbAqvRStWL1UFX-23" value="Кадры(аутсорс), знания" style="edgeLabel;html=1;align=center;verticalAlign=middle;resizable=0;points=[];" vertex="1" connectable="0" parent="27hMLqfbAqvRStWL1UFX-18">
          <mxGeometry x="0.2473" y="1" relative="1" as="geometry">
            <mxPoint x="27" y="9" as="offset" />
          </mxGeometry>
        </mxCell>
        <mxCell id="27hMLqfbAqvRStWL1UFX-2" value="Партнеры по разработке" style="rounded=1;whiteSpace=wrap;html=1;" vertex="1" parent="1">
          <mxGeometry x="707" y="240" width="120" height="60" as="geometry" />
        </mxCell>
        <mxCell id="27hMLqfbAqvRStWL1UFX-16" style="edgeStyle=orthogonalEdgeStyle;rounded=0;orthogonalLoop=1;jettySize=auto;html=1;entryX=0.5;entryY=1;entryDx=0;entryDy=0;" edge="1" parent="1">
          <mxGeometry relative="1" as="geometry">
            <mxPoint x="430" y="460" as="sourcePoint" />
            <mxPoint x="430" y="300" as="targetPoint" />
          </mxGeometry>
        </mxCell>
        <mxCell id="27hMLqfbAqvRStWL1UFX-3" value="Исследовательские&lt;div&gt;учереждения&lt;/div&gt;" style="rounded=1;whiteSpace=wrap;html=1;" vertex="1" parent="1">
          <mxGeometry x="340" y="460" width="120" height="60" as="geometry" />
        </mxCell>
        <mxCell id="27hMLqfbAqvRStWL1UFX-7" style="edgeStyle=orthogonalEdgeStyle;rounded=0;orthogonalLoop=1;jettySize=auto;html=1;entryX=0;entryY=0.167;entryDx=0;entryDy=0;entryPerimeter=0;" edge="1" parent="1" target="27hMLqfbAqvRStWL1UFX-1">
          <mxGeometry relative="1" as="geometry">
            <mxPoint x="120" y="250" as="sourcePoint" />
            <mxPoint x="330" y="250" as="targetPoint" />
          </mxGeometry>
        </mxCell>
        <mxCell id="27hMLqfbAqvRStWL1UFX-9" value="Покупка подписок, сервисов" style="edgeLabel;html=1;align=center;verticalAlign=middle;resizable=0;points=[];" vertex="1" connectable="0" parent="27hMLqfbAqvRStWL1UFX-7">
          <mxGeometry x="-0.2329" y="1" relative="1" as="geometry">
            <mxPoint x="26" y="-9" as="offset" />
          </mxGeometry>
        </mxCell>
        <mxCell id="27hMLqfbAqvRStWL1UFX-4" value="Клиенты и&lt;div&gt;пользователи&lt;/div&gt;" style="rounded=1;whiteSpace=wrap;html=1;" vertex="1" parent="1">
          <mxGeometry y="240" width="120" height="60" as="geometry" />
        </mxCell>
        <mxCell id="27hMLqfbAqvRStWL1UFX-11" style="edgeStyle=orthogonalEdgeStyle;rounded=0;orthogonalLoop=1;jettySize=auto;html=1;entryX=0.25;entryY=0;entryDx=0;entryDy=0;exitX=0.25;exitY=1;exitDx=0;exitDy=0;" edge="1" parent="1" source="27hMLqfbAqvRStWL1UFX-5" target="27hMLqfbAqvRStWL1UFX-1">
          <mxGeometry relative="1" as="geometry">
            <mxPoint x="360" y="60" as="sourcePoint" />
            <mxPoint x="360" y="240" as="targetPoint" />
          </mxGeometry>
        </mxCell>
        <mxCell id="27hMLqfbAqvRStWL1UFX-13" value="Ограничения от регулятора" style="edgeLabel;html=1;align=center;verticalAlign=middle;resizable=0;points=[];rotation=270;" vertex="1" connectable="0" parent="27hMLqfbAqvRStWL1UFX-11">
          <mxGeometry x="-0.2444" relative="1" as="geometry">
            <mxPoint x="-10" y="22" as="offset" />
          </mxGeometry>
        </mxCell>
        <mxCell id="27hMLqfbAqvRStWL1UFX-5" value="Регулирующие&lt;div&gt;органы&lt;/div&gt;" style="rounded=1;whiteSpace=wrap;html=1;" vertex="1" parent="1">
          <mxGeometry x="340" width="120" height="60" as="geometry" />
        </mxCell>
        <mxCell id="27hMLqfbAqvRStWL1UFX-25" style="edgeStyle=orthogonalEdgeStyle;rounded=0;orthogonalLoop=1;jettySize=auto;html=1;entryX=1;entryY=0;entryDx=0;entryDy=0;" edge="1" parent="1" source="27hMLqfbAqvRStWL1UFX-6" target="27hMLqfbAqvRStWL1UFX-1">
          <mxGeometry relative="1" as="geometry" />
        </mxCell>
        <mxCell id="27hMLqfbAqvRStWL1UFX-26" value="Работа с НКО и инициативами&lt;div&gt;по безопасноти ИИ&lt;/div&gt;&lt;div&gt;и этике&lt;/div&gt;" style="edgeLabel;html=1;align=center;verticalAlign=middle;resizable=0;points=[];labelBackgroundColor=none;fontColor=default;" vertex="1" connectable="0" parent="27hMLqfbAqvRStWL1UFX-25">
          <mxGeometry x="-0.3667" relative="1" as="geometry">
            <mxPoint x="21" y="30" as="offset" />
          </mxGeometry>
        </mxCell>
        <mxCell id="27hMLqfbAqvRStWL1UFX-6" value="Общественные организации" style="rounded=1;whiteSpace=wrap;html=1;" vertex="1" parent="1">
          <mxGeometry x="610" y="40" width="120" height="60" as="geometry" />
        </mxCell>
        <mxCell id="27hMLqfbAqvRStWL1UFX-33" style="edgeStyle=orthogonalEdgeStyle;rounded=0;orthogonalLoop=1;jettySize=auto;html=1;exitX=-0.003;exitY=0.837;exitDx=0;exitDy=0;entryX=0.99;entryY=0.803;entryDx=0;entryDy=0;entryPerimeter=0;exitPerimeter=0;" edge="1" parent="1" source="27hMLqfbAqvRStWL1UFX-37" target="27hMLqfbAqvRStWL1UFX-42">
          <mxGeometry relative="1" as="geometry">
            <mxPoint x="300" y="790" as="sourcePoint" />
            <mxPoint x="300" y="910" as="targetPoint" />
          </mxGeometry>
        </mxCell>
        <mxCell id="27hMLqfbAqvRStWL1UFX-34" value="Взаимодействие с университетами&lt;div&gt;&amp;nbsp;и научными центрами&amp;nbsp;&lt;/div&gt;&lt;div&gt;для совместных исследований&amp;nbsp;&lt;/div&gt;" style="edgeLabel;html=1;align=center;verticalAlign=middle;resizable=0;points=[];labelBackgroundColor=none;" vertex="1" connectable="0" parent="27hMLqfbAqvRStWL1UFX-33">
          <mxGeometry x="-0.1798" relative="1" as="geometry">
            <mxPoint x="-15" y="-70" as="offset" />
          </mxGeometry>
        </mxCell>
        <mxCell id="27hMLqfbAqvRStWL1UFX-35" style="edgeStyle=orthogonalEdgeStyle;rounded=0;orthogonalLoop=1;jettySize=auto;html=1;exitX=0.993;exitY=0.157;exitDx=0;exitDy=0;exitPerimeter=0;entryX=-0.015;entryY=0.15;entryDx=0;entryDy=0;entryPerimeter=0;" edge="1" parent="1" source="27hMLqfbAqvRStWL1UFX-37" target="27hMLqfbAqvRStWL1UFX-40">
          <mxGeometry relative="1" as="geometry">
            <mxPoint x="390" y="720" as="sourcePoint" />
            <mxPoint x="630" y="718" as="targetPoint" />
          </mxGeometry>
        </mxCell>
        <mxCell id="27hMLqfbAqvRStWL1UFX-36" value="Сотрудничество с компаниями для интеграции ИИ продуктов&lt;div style=&quot;font-size: 10px;&quot;&gt;Обмен опытом&lt;/div&gt;" style="edgeLabel;html=1;align=center;verticalAlign=middle;resizable=0;points=[];fontSize=10;" vertex="1" connectable="0" parent="27hMLqfbAqvRStWL1UFX-35">
          <mxGeometry x="-0.1163" y="-1" relative="1" as="geometry">
            <mxPoint x="32" y="-20" as="offset" />
          </mxGeometry>
        </mxCell>
        <mxCell id="27hMLqfbAqvRStWL1UFX-37" value="OpenAI" style="rounded=1;whiteSpace=wrap;html=1;fontStyle=1" vertex="1" parent="1">
          <mxGeometry x="270" y="710" width="120" height="60" as="geometry" />
        </mxCell>
        <mxCell id="27hMLqfbAqvRStWL1UFX-38" style="edgeStyle=orthogonalEdgeStyle;rounded=0;orthogonalLoop=1;jettySize=auto;html=1;entryX=0.987;entryY=0.823;entryDx=0;entryDy=0;entryPerimeter=0;exitX=-0.015;exitY=0.837;exitDx=0;exitDy=0;exitPerimeter=0;" edge="1" parent="1" source="27hMLqfbAqvRStWL1UFX-40" target="27hMLqfbAqvRStWL1UFX-37">
          <mxGeometry relative="1" as="geometry">
            <mxPoint x="630" y="759" as="sourcePoint" />
            <mxPoint x="410" y="760" as="targetPoint" />
          </mxGeometry>
        </mxCell>
        <mxCell id="27hMLqfbAqvRStWL1UFX-39" value="Кадры(аутсорс), знания" style="edgeLabel;html=1;align=center;verticalAlign=middle;resizable=0;points=[];" vertex="1" connectable="0" parent="27hMLqfbAqvRStWL1UFX-38">
          <mxGeometry x="0.2473" y="1" relative="1" as="geometry">
            <mxPoint x="27" y="9" as="offset" />
          </mxGeometry>
        </mxCell>
        <mxCell id="27hMLqfbAqvRStWL1UFX-40" value="Партнеры по разработке" style="rounded=1;whiteSpace=wrap;html=1;" vertex="1" parent="1">
          <mxGeometry x="637" y="710" width="120" height="60" as="geometry" />
        </mxCell>
        <mxCell id="27hMLqfbAqvRStWL1UFX-41" style="edgeStyle=orthogonalEdgeStyle;rounded=0;orthogonalLoop=1;jettySize=auto;html=1;exitX=0.987;exitY=0.17;exitDx=0;exitDy=0;exitPerimeter=0;entryX=-0.01;entryY=0.177;entryDx=0;entryDy=0;entryPerimeter=0;" edge="1" parent="1" source="27hMLqfbAqvRStWL1UFX-42" target="27hMLqfbAqvRStWL1UFX-37">
          <mxGeometry relative="1" as="geometry">
            <mxPoint x="360" y="920" as="sourcePoint" />
            <mxPoint x="360" y="780" as="targetPoint" />
          </mxGeometry>
        </mxCell>
        <mxCell id="27hMLqfbAqvRStWL1UFX-42" value="Исследовательские&lt;div&gt;учереждения&lt;/div&gt;" style="rounded=1;whiteSpace=wrap;html=1;" vertex="1" parent="1">
          <mxGeometry x="20" y="710" width="120" height="60" as="geometry" />
        </mxCell>
        <mxCell id="27hMLqfbAqvRStWL1UFX-52" style="edgeStyle=orthogonalEdgeStyle;rounded=0;orthogonalLoop=1;jettySize=auto;html=1;entryX=1;entryY=0.5;entryDx=0;entryDy=0;" edge="1" parent="1">
          <mxGeometry relative="1" as="geometry">
            <mxPoint x="340" y="1110" as="sourcePoint" />
            <mxPoint x="120" y="1110" as="targetPoint" />
          </mxGeometry>
        </mxCell>
        <mxCell id="27hMLqfbAqvRStWL1UFX-53" value="Доступ к системе,&lt;div&gt;доступ к API&lt;/div&gt;" style="edgeLabel;html=1;align=center;verticalAlign=middle;resizable=0;points=[];" vertex="1" connectable="0" parent="27hMLqfbAqvRStWL1UFX-52">
          <mxGeometry x="0.1983" y="1" relative="1" as="geometry">
            <mxPoint x="22" y="19" as="offset" />
          </mxGeometry>
        </mxCell>
        <mxCell id="27hMLqfbAqvRStWL1UFX-54" style="edgeStyle=orthogonalEdgeStyle;rounded=0;orthogonalLoop=1;jettySize=auto;html=1;exitX=0.75;exitY=0;exitDx=0;exitDy=0;" edge="1" parent="1" source="27hMLqfbAqvRStWL1UFX-60">
          <mxGeometry relative="1" as="geometry">
            <mxPoint x="430" y="1050" as="sourcePoint" />
            <mxPoint x="430" y="880" as="targetPoint" />
            <Array as="points" />
          </mxGeometry>
        </mxCell>
        <mxCell id="27hMLqfbAqvRStWL1UFX-55" value="Отчетность" style="edgeLabel;html=1;align=center;verticalAlign=middle;resizable=0;points=[];rotation=270;" vertex="1" connectable="0" parent="27hMLqfbAqvRStWL1UFX-54">
          <mxGeometry x="0.3926" y="-2" relative="1" as="geometry">
            <mxPoint x="8" y="25" as="offset" />
          </mxGeometry>
        </mxCell>
        <mxCell id="27hMLqfbAqvRStWL1UFX-60" value="OpenAI" style="rounded=1;whiteSpace=wrap;html=1;fontStyle=1" vertex="1" parent="1">
          <mxGeometry x="340" y="1060" width="120" height="60" as="geometry" />
        </mxCell>
        <mxCell id="27hMLqfbAqvRStWL1UFX-66" style="edgeStyle=orthogonalEdgeStyle;rounded=0;orthogonalLoop=1;jettySize=auto;html=1;entryX=0;entryY=0.167;entryDx=0;entryDy=0;entryPerimeter=0;" edge="1" parent="1" target="27hMLqfbAqvRStWL1UFX-60">
          <mxGeometry relative="1" as="geometry">
            <mxPoint x="120" y="1070" as="sourcePoint" />
            <mxPoint x="330" y="1070" as="targetPoint" />
          </mxGeometry>
        </mxCell>
        <mxCell id="27hMLqfbAqvRStWL1UFX-67" value="Покупка подписок, сервисов" style="edgeLabel;html=1;align=center;verticalAlign=middle;resizable=0;points=[];" vertex="1" connectable="0" parent="27hMLqfbAqvRStWL1UFX-66">
          <mxGeometry x="-0.2329" y="1" relative="1" as="geometry">
            <mxPoint x="26" y="-9" as="offset" />
          </mxGeometry>
        </mxCell>
        <mxCell id="27hMLqfbAqvRStWL1UFX-68" value="Клиенты и&lt;div&gt;пользователи&lt;/div&gt;" style="rounded=1;whiteSpace=wrap;html=1;" vertex="1" parent="1">
          <mxGeometry y="1060" width="120" height="60" as="geometry" />
        </mxCell>
        <mxCell id="27hMLqfbAqvRStWL1UFX-69" style="edgeStyle=orthogonalEdgeStyle;rounded=0;orthogonalLoop=1;jettySize=auto;html=1;entryX=0.25;entryY=0;entryDx=0;entryDy=0;exitX=0.25;exitY=1;exitDx=0;exitDy=0;" edge="1" parent="1" source="27hMLqfbAqvRStWL1UFX-71" target="27hMLqfbAqvRStWL1UFX-60">
          <mxGeometry relative="1" as="geometry">
            <mxPoint x="360" y="880" as="sourcePoint" />
            <mxPoint x="360" y="1060" as="targetPoint" />
          </mxGeometry>
        </mxCell>
        <mxCell id="27hMLqfbAqvRStWL1UFX-70" value="Ограничения от регулятора" style="edgeLabel;html=1;align=center;verticalAlign=middle;resizable=0;points=[];rotation=270;" vertex="1" connectable="0" parent="27hMLqfbAqvRStWL1UFX-69">
          <mxGeometry x="-0.2444" relative="1" as="geometry">
            <mxPoint x="-10" y="22" as="offset" />
          </mxGeometry>
        </mxCell>
        <mxCell id="27hMLqfbAqvRStWL1UFX-71" value="Регулирующие&lt;div&gt;органы&lt;/div&gt;" style="rounded=1;whiteSpace=wrap;html=1;" vertex="1" parent="1">
          <mxGeometry x="340" y="820" width="120" height="60" as="geometry" />
        </mxCell>
        <mxCell id="27hMLqfbAqvRStWL1UFX-72" style="edgeStyle=orthogonalEdgeStyle;rounded=0;orthogonalLoop=1;jettySize=auto;html=1;entryX=1;entryY=0.5;entryDx=0;entryDy=0;" edge="1" parent="1" source="27hMLqfbAqvRStWL1UFX-74" target="27hMLqfbAqvRStWL1UFX-60">
          <mxGeometry relative="1" as="geometry" />
        </mxCell>
        <mxCell id="27hMLqfbAqvRStWL1UFX-73" value="Работа с НКО и инициативами&lt;div&gt;по безопасноти ИИ&lt;/div&gt;&lt;div&gt;и этике&lt;/div&gt;" style="edgeLabel;html=1;align=center;verticalAlign=middle;resizable=0;points=[];labelBackgroundColor=none;fontColor=default;" vertex="1" connectable="0" parent="27hMLqfbAqvRStWL1UFX-72">
          <mxGeometry x="-0.3667" relative="1" as="geometry">
            <mxPoint x="-37" y="-20" as="offset" />
          </mxGeometry>
        </mxCell>
        <mxCell id="27hMLqfbAqvRStWL1UFX-74" value="Общественные организации" style="rounded=1;whiteSpace=wrap;html=1;" vertex="1" parent="1">
          <mxGeometry x="660" y="1060" width="120" height="60" as="geometry" />
        </mxCell>
        <mxCell id="27hMLqfbAqvRStWL1UFX-75" value="Взаимодействие с университетами&lt;div&gt;&amp;nbsp;и научными центрами&amp;nbsp;&lt;/div&gt;&lt;div&gt;для совместных исследований&amp;nbsp;&lt;/div&gt;" style="edgeLabel;html=1;align=center;verticalAlign=middle;resizable=0;points=[];labelBackgroundColor=none;" vertex="1" connectable="0" parent="1">
          <mxGeometry x="200.35429137664687" y="1510.1952054312924" as="geometry" />
        </mxCell>
        <mxCell id="27hMLqfbAqvRStWL1UFX-76" value="Сотрудничество с компаниями для интеграции ИИ продуктов&lt;div style=&quot;font-size: 10px;&quot;&gt;Обмен опытом&lt;/div&gt;" style="edgeLabel;html=1;align=center;verticalAlign=middle;resizable=0;points=[];fontSize=10;" vertex="1" connectable="0" parent="1">
          <mxGeometry x="529.7313593647486" y="1520.4274858467236" as="geometry" />
        </mxCell>
      </root>
    </mxGraphModel>
  </diagram>
</mxfile>
